<?xml version="1.0" encoding="UTF-8"?>
<svg id="layer" xmlns="http://www.w3.org/2000/svg" version="1.1" viewBox="0 0 652 52">
  <!-- Generator: Adobe Illustrator 29.5.1, SVG Export Plug-In . SVG Version: 2.1.0 Build 141)  -->
  <defs>
    <style>
      .st0 {
        fill: #fff;
      }
    </style>
  </defs>
  <path class="st0" d="M602.3,22.3c-.9,0-1.7.7-1.7,1.7s.8,1.7,1.7,1.7,1.7-.7,1.7-1.7-.7-1.7-1.7-1.7M598,17.4c-.9,0-1.7.7-1.7,1.7s.7,1.7,1.7,1.7,1.7-.8,1.7-1.7-.8-1.7-1.7-1.7M593.7,12.4c-.9,0-1.7.7-1.7,1.7s.8,1.7,1.7,1.7,1.7-.7,1.7-1.7-.8-1.7-1.7-1.7M446.4,35.8c-.9,0-1.6.9-1.6,1.8.1.9.9,1.6,1.8,1.6.9,0,1.6-.9,1.6-1.8s-.8-1.7-1.8-1.6M442.5,31.1c-.9.1-1.6.9-1.6,1.8.1.9.9,1.6,1.8,1.6.9,0,1.6-.9,1.6-1.8s-.8-1.6-1.8-1.6M450.4,40.4c-.9,0-1.6.9-1.6,1.8.1.9.9,1.6,1.8,1.6.9,0,1.6-.9,1.6-1.8s-.9-1.7-1.8-1.6M234,18.8c0-.9-.8-1.7-1.7-1.7s-1.7.8-1.7,1.7.8,1.7,1.7,1.7,1.7-.7,1.7-1.7M222,35.8c-.9,0-1.7.8-1.7,1.7s.8,1.7,1.7,1.7,1.7-.8,1.7-1.7-.8-1.7-1.7-1.7M224.6,31.1c-.9,0-1.7.8-1.7,1.7s.8,1.7,1.7,1.7,1.7-.8,1.7-1.7-.8-1.7-1.7-1.7M227.1,26.5c-.9,0-1.7.8-1.7,1.7s.8,1.7,1.7,1.7,1.7-.8,1.7-1.7-.7-1.7-1.7-1.7M229.8,31.1c-.9,0-1.7.8-1.7,1.7s.8,1.7,1.7,1.7,1.7-.8,1.7-1.7-.8-1.7-1.7-1.7M219.4,40.5c-.9,0-1.7.8-1.7,1.7s.8,1.7,1.7,1.7,1.7-.8,1.7-1.7-.8-1.7-1.7-1.7M229.8,21.8c-.9,0-1.7.8-1.7,1.7s.8,1.7,1.7,1.7,1.7-.8,1.7-1.7-.8-1.7-1.7-1.7M235,31.1c-.9,0-1.7.8-1.7,1.7s.8,1.7,1.7,1.7,1.7-.8,1.7-1.7-.8-1.7-1.7-1.7M235,12.5c-.9,0-1.7.8-1.7,1.7s.8,1.7,1.7,1.7,1.7-.8,1.7-1.7-.8-1.7-1.7-1.7M265.5,24.8c-.9,0-1.7.7-1.7,1.7s.7,1.7,1.7,1.7,1.7-.7,1.7-1.7-.8-1.7-1.7-1.7M269.3,29c-.9,0-1.7.7-1.7,1.7s.7,1.7,1.7,1.7,1.7-.7,1.7-1.7-.7-1.7-1.7-1.7M261.7,20.7c-.9,0-1.7.7-1.7,1.7s.7,1.7,1.7,1.7,1.7-.7,1.7-1.7-.7-1.7-1.7-1.7M254.2,12.4c-.9,0-1.7.7-1.7,1.7s.7,1.7,1.7,1.7,1.7-.7,1.7-1.7-.8-1.7-1.7-1.7M258,16.5c-.9,0-1.7.7-1.7,1.7s.7,1.7,1.7,1.7,1.7-.7,1.7-1.7-.8-1.7-1.7-1.7M185.3,12.5c-.9,0-1.7.8-1.7,1.7s.8,1.7,1.7,1.7,1.7-.8,1.7-1.7-.7-1.7-1.7-1.7M192.4,40.5c-.9,0-1.7.8-1.7,1.7s.8,1.7,1.7,1.7,1.7-.8,1.7-1.7-.8-1.7-1.7-1.7M185.3,18c-.9,0-1.7.8-1.7,1.7s.8,1.7,1.7,1.7,1.7-.8,1.7-1.7-.7-1.7-1.7-1.7M185.3,23.6c-.9,0-1.7.8-1.7,1.7s.8,1.7,1.7,1.7,1.7-.8,1.7-1.7-.7-1.7-1.7-1.7M199.3,40.5c-.9,0-1.7.8-1.7,1.7s.8,1.7,1.7,1.7,1.7-.8,1.7-1.7-.7-1.7-1.7-1.7M148.6,29.2c-.9,0-1.7.8-1.7,1.7s.8,1.7,1.7,1.7,1.7-.8,1.7-1.7-.8-1.7-1.7-1.7M148.6,23.6c-.9,0-1.7.8-1.7,1.7s.8,1.7,1.7,1.7,1.7-.8,1.7-1.7-.8-1.7-1.7-1.7M148.6,40.5c-.9,0-1.7.8-1.7,1.7s.8,1.7,1.7,1.7,1.7-.8,1.7-1.7-.8-1.7-1.7-1.7M148.6,34.9c-.9,0-1.7.8-1.7,1.7s.8,1.7,1.7,1.7,1.7-.8,1.7-1.7-.8-1.7-1.7-1.7M125.7,12.5c-.9,0-1.7.8-1.7,1.7s.8,1.7,1.7,1.7,1.7-.8,1.7-1.7-.8-1.7-1.7-1.7M148.6,18c-.9,0-1.7.8-1.7,1.7s.8,1.7,1.7,1.7,1.7-.8,1.7-1.7-.8-1.7-1.7-1.7M185.3,29.2c-.9,0-1.7.8-1.7,1.7s.8,1.7,1.7,1.7,1.7-.8,1.7-1.7-.7-1.7-1.7-1.7M185.3,40.5c-.9,0-1.7.8-1.7,1.7s.8,1.7,1.7,1.7,1.7-.8,1.7-1.7-.7-1.7-1.7-1.7M185.3,34.9c-.9,0-1.7.8-1.7,1.7s.8,1.7,1.7,1.7,1.7-.8,1.7-1.7-.7-1.7-1.7-1.7M162.6,40.5c-.9,0-1.7.8-1.7,1.7s.8,1.7,1.7,1.7,1.7-.8,1.7-1.7-.7-1.7-1.7-1.7M148.6,12.5c-.9,0-1.7.8-1.7,1.7s.8,1.7,1.7,1.7,1.7-.8,1.7-1.7-.8-1.7-1.7-1.7M155.6,40.5c-.9,0-1.7.8-1.7,1.7s.8,1.7,1.7,1.7,1.7-.8,1.7-1.7-.8-1.7-1.7-1.7M284.6,29.2c-.9,0-1.7.8-1.7,1.7s.8,1.7,1.7,1.7,1.7-.8,1.7-1.7-.8-1.7-1.7-1.7M125.7,40.5c-.9,0-1.7.8-1.7,1.7s.8,1.7,1.7,1.7,1.7-.8,1.7-1.7-.8-1.7-1.7-1.7M284.6,40.5c-.9,0-1.7.8-1.7,1.7s.8,1.7,1.7,1.7,1.7-.8,1.7-1.7-.8-1.7-1.7-1.7M284.6,23.6c-.9,0-1.7.8-1.7,1.7s.8,1.7,1.7,1.7,1.7-.8,1.7-1.7-.8-1.7-1.7-1.7M284.6,18c-.9,0-1.7.8-1.7,1.7s.8,1.7,1.7,1.7,1.7-.8,1.7-1.7-.8-1.7-1.7-1.7M254.1,29.2c-.9,0-1.7.8-1.7,1.7s.8,1.7,1.7,1.7,1.7-.8,1.7-1.7-.7-1.7-1.7-1.7M254.1,34.9c-.9,0-1.7.8-1.7,1.7s.8,1.7,1.7,1.7,1.7-.8,1.7-1.7-.7-1.7-1.7-1.7M254.1,23.6c-.9,0-1.7.8-1.7,1.7s.8,1.7,1.7,1.7,1.7-.8,1.7-1.7-.7-1.7-1.7-1.7M254.1,40.5c-.9,0-1.7.8-1.7,1.7s.8,1.7,1.7,1.7,1.7-.8,1.7-1.7-.7-1.7-1.7-1.7M254.1,18c-.9,0-1.7.8-1.7,1.7s.8,1.7,1.7,1.7,1.7-.8,1.7-1.7-.7-1.7-1.7-1.7M284.6,34.9c-.9,0-1.7.8-1.7,1.7s.8,1.7,1.7,1.7,1.7-.8,1.7-1.7-.8-1.7-1.7-1.7M438.9,15.9c.9,0,1.7-.8,1.7-1.7s-.8-1.7-1.7-1.7-1.7.8-1.7,1.7.7,1.7,1.7,1.7M444.2,15.9c.9,0,1.7-.8,1.7-1.7s-.8-1.7-1.7-1.7-1.7.8-1.7,1.7.8,1.7,1.7,1.7M448.9,17.8c.9,0,1.7-.8,1.7-1.7s-.8-1.7-1.7-1.7-1.7.8-1.7,1.7.7,1.7,1.7,1.7M119.4,12.5c-.9,0-1.7.8-1.7,1.7s.8,1.7,1.7,1.7,1.7-.8,1.7-1.7-.8-1.7-1.7-1.7M106.9,18c-.9,0-1.7.8-1.7,1.7s.8,1.7,1.7,1.7,1.7-.8,1.7-1.7-.7-1.7-1.7-1.7M106.9,12.5c-.9,0-1.7.8-1.7,1.7s.8,1.7,1.7,1.7,1.7-.8,1.7-1.7-.7-1.7-1.7-1.7M113.2,40.5c-.9,0-1.7.8-1.7,1.7s.8,1.7,1.7,1.7,1.7-.8,1.7-1.7-.8-1.7-1.7-1.7M106.9,29.2c-.9,0-1.7.8-1.7,1.7s.8,1.7,1.7,1.7,1.7-.8,1.7-1.7-.7-1.7-1.7-1.7M113.2,26.5c-.9,0-1.7.8-1.7,1.7s.8,1.7,1.7,1.7,1.7-.8,1.7-1.7-.8-1.7-1.7-1.7M106.9,34.9c-.9,0-1.7.8-1.7,1.7s.8,1.7,1.7,1.7,1.7-.8,1.7-1.7-.7-1.7-1.7-1.7M106.9,23.6c-.9,0-1.7.8-1.7,1.7s.8,1.7,1.7,1.7,1.7-.8,1.7-1.7-.7-1.7-1.7-1.7M113.2,12.5c-.9,0-1.7.8-1.7,1.7s.8,1.7,1.7,1.7,1.7-.8,1.7-1.7-.8-1.7-1.7-1.7M119.4,26.5c-.9,0-1.7.8-1.7,1.7s.8,1.7,1.7,1.7,1.7-.8,1.7-1.7-.8-1.7-1.7-1.7M119.4,40.5c-.9,0-1.7.8-1.7,1.7s.8,1.7,1.7,1.7,1.7-.8,1.7-1.7-.8-1.7-1.7-1.7M67,12.5c-.9,0-1.7.8-1.7,1.7s.8,1.7,1.7,1.7,1.7-.8,1.7-1.7-.8-1.7-1.7-1.7M75.4,40.5c-.9,0-1.7.8-1.7,1.7s.8,1.7,1.7,1.7,1.7-.8,1.7-1.7-.8-1.7-1.7-1.7M106.9,40.5c-.9,0-1.7.8-1.7,1.7s.8,1.7,1.7,1.7,1.7-.8,1.7-1.7-.7-1.7-1.7-1.7M75.4,28.8c-.9,0-1.7.8-1.7,1.7s.8,1.7,1.7,1.7,1.7-.8,1.7-1.7-.8-1.7-1.7-1.7M61.4,12.5c-.9,0-1.7.8-1.7,1.7s.8,1.7,1.7,1.7,1.7-.8,1.7-1.7-.8-1.7-1.7-1.7M72.5,12.5c-.9,0-1.7.8-1.7,1.7s.8,1.7,1.7,1.7,1.7-.8,1.7-1.7-.7-1.7-1.7-1.7M75.4,34.6c-.9,0-1.7.8-1.7,1.7s.8,1.7,1.7,1.7,1.7-.8,1.7-1.7-.8-1.7-1.7-1.7M75.4,23c-.9,0-1.7.8-1.7,1.7s.8,1.7,1.7,1.7,1.7-.8,1.7-1.7-.8-1.7-1.7-1.7M89.4,12.5c-.9,0-1.7.8-1.7,1.7s.8,1.7,1.7,1.7,1.7-.8,1.7-1.7-.8-1.7-1.7-1.7M78.2,12.5c-.9,0-1.7.8-1.7,1.7s.8,1.7,1.7,1.7,1.7-.8,1.7-1.7-.8-1.7-1.7-1.7M83.8,12.5c-.9,0-1.7.8-1.7,1.7s.8,1.7,1.7,1.7,1.7-.8,1.7-1.7-.8-1.7-1.7-1.7M75.4,17.1c-.9,0-1.7.8-1.7,1.7s.8,1.7,1.7,1.7,1.7-.8,1.7-1.7-.8-1.7-1.7-1.7M537.9,34.9c-.9,0-1.7.8-1.7,1.7s.8,1.7,1.7,1.7,1.7-.8,1.7-1.7-.8-1.7-1.7-1.7M537.9,29.2c-.9,0-1.7.8-1.7,1.7s.8,1.7,1.7,1.7,1.7-.8,1.7-1.7-.8-1.7-1.7-1.7M537.9,18c-.9,0-1.7.8-1.7,1.7s.8,1.7,1.7,1.7,1.7-.8,1.7-1.7-.8-1.7-1.7-1.7M537.9,12.5c-.9,0-1.7.8-1.7,1.7s.8,1.7,1.7,1.7,1.7-.8,1.7-1.7-.8-1.7-1.7-1.7M558.6,40.5c-.9,0-1.7.8-1.7,1.7s.8,1.7,1.7,1.7,1.7-.8,1.7-1.7-.8-1.7-1.7-1.7M537.9,23.6c-.9,0-1.7.8-1.7,1.7s.8,1.7,1.7,1.7,1.7-.8,1.7-1.7-.8-1.7-1.7-1.7M512.5,40.5c-.9,0-1.7.8-1.7,1.7s.8,1.7,1.7,1.7,1.7-.8,1.7-1.7-.7-1.7-1.7-1.7M489,12.5c-.9,0-1.7.8-1.7,1.7s.8,1.7,1.7,1.7,1.7-.8,1.7-1.7-.8-1.7-1.7-1.7M494.5,12.5c-.9,0-1.7.8-1.7,1.7s.8,1.7,1.7,1.7,1.7-.8,1.7-1.7-.7-1.7-1.7-1.7M483.4,12.5c-.9,0-1.7.8-1.7,1.7s.8,1.7,1.7,1.7,1.7-.8,1.7-1.7-.8-1.7-1.7-1.7M480.5,23c-.9,0-1.7.8-1.7,1.7s.8,1.7,1.7,1.7,1.7-.8,1.7-1.7-.7-1.7-1.7-1.7M558.6,34.9c-.9,0-1.7.8-1.7,1.7s.8,1.7,1.7,1.7,1.7-.8,1.7-1.7-.8-1.7-1.7-1.7M480.5,17.1c-.9,0-1.7.8-1.7,1.7s.8,1.7,1.7,1.7,1.7-.8,1.7-1.7-.7-1.7-1.7-1.7M512.5,23.6c-.9,0-1.7.8-1.7,1.7s.8,1.7,1.7,1.7,1.7-.8,1.7-1.7-.7-1.7-1.7-1.7M512.5,18c-.9,0-1.7.8-1.7,1.7s.8,1.7,1.7,1.7,1.7-.8,1.7-1.7-.7-1.7-1.7-1.7M512.5,34.9c-.9,0-1.7.8-1.7,1.7s.8,1.7,1.7,1.7,1.7-.8,1.7-1.7-.7-1.7-1.7-1.7M512.5,29.2c-.9,0-1.7.8-1.7,1.7s.8,1.7,1.7,1.7,1.7-.8,1.7-1.7-.7-1.7-1.7-1.7M606.7,40.5c-.9,0-1.7.8-1.7,1.7s.8,1.7,1.7,1.7,1.7-.8,1.7-1.7-.8-1.7-1.7-1.7M577.3,12.5c-.9,0-1.7.8-1.7,1.7s.8,1.7,1.7,1.7,1.7-.8,1.7-1.7-.8-1.7-1.7-1.7M577.3,40.5c-.9,0-1.7.8-1.7,1.7s.8,1.7,1.7,1.7,1.7-.8,1.7-1.7-.8-1.7-1.7-1.7M606.7,33.9c-.9,0-1.7.8-1.7,1.7s.8,1.7,1.7,1.7,1.7-.8,1.7-1.7-.8-1.7-1.7-1.7M558.6,12.5c-.9,0-1.7.8-1.7,1.7s.8,1.7,1.7,1.7,1.7-.8,1.7-1.7-.8-1.7-1.7-1.7M571,12.5c-.9,0-1.7.8-1.7,1.7s.8,1.7,1.7,1.7,1.7-.8,1.7-1.7-.7-1.7-1.7-1.7M564.8,26.5c-.9,0-1.7.8-1.7,1.7s.8,1.7,1.7,1.7,1.7-.8,1.7-1.7-.7-1.7-1.7-1.7M564.8,40.5c-.9,0-1.7.8-1.7,1.7s.8,1.7,1.7,1.7,1.7-.8,1.7-1.7-.7-1.7-1.7-1.7M558.6,23.6c-.9,0-1.7.8-1.7,1.7s.8,1.7,1.7,1.7,1.7-.8,1.7-1.7-.8-1.7-1.7-1.7M558.6,18c-.9,0-1.7.8-1.7,1.7s.8,1.7,1.7,1.7,1.7-.8,1.7-1.7-.8-1.7-1.7-1.7M571,40.5c-.9,0-1.7.8-1.7,1.7s.8,1.7,1.7,1.7,1.7-.8,1.7-1.7-.7-1.7-1.7-1.7M571,26.5c-.9,0-1.7.8-1.7,1.7s.8,1.7,1.7,1.7,1.7-.8,1.7-1.7-.7-1.7-1.7-1.7M558.6,29.2c-.9,0-1.7.8-1.7,1.7s.8,1.7,1.7,1.7,1.7-.8,1.7-1.7-.8-1.7-1.7-1.7M564.8,12.5c-.9,0-1.7.8-1.7,1.7s.8,1.7,1.7,1.7,1.7-.8,1.7-1.7-.7-1.7-1.7-1.7M450.6,25.7c0-.9-.8-1.7-1.7-1.7s-1.7.8-1.7,1.7.8,1.7,1.7,1.7,1.7-.7,1.7-1.7M480.5,28.8c-.9,0-1.7.8-1.7,1.7s.8,1.7,1.7,1.7,1.7-.8,1.7-1.7-.7-1.7-1.7-1.7M606.7,27.3c-.9,0-1.7.8-1.7,1.7s.8,1.7,1.7,1.7,1.7-.8,1.7-1.7-.8-1.7-1.7-1.7M452.3,20.9c0-.9-.8-1.7-1.7-1.7s-1.7.8-1.7,1.7.8,1.7,1.7,1.7,1.7-.7,1.7-1.7M480.5,40.5c-.9,0-1.7.8-1.7,1.7s.8,1.7,1.7,1.7,1.7-.8,1.7-1.7-.7-1.7-1.7-1.7M477.7,12.5c-.9,0-1.7.8-1.7,1.7s.8,1.7,1.7,1.7,1.7-.8,1.7-1.7-.7-1.7-1.7-1.7M480.5,34.6c-.9,0-1.7.8-1.7,1.7s.8,1.7,1.7,1.7,1.7-.8,1.7-1.7-.7-1.7-1.7-1.7M466.5,12.5c-.9,0-1.7.8-1.7,1.7s.8,1.7,1.7,1.7,1.7-.8,1.7-1.7-.7-1.7-1.7-1.7M472.1,12.5c-.9,0-1.7.8-1.7,1.7s.8,1.7,1.7,1.7,1.7-.8,1.7-1.7-.8-1.7-1.7-1.7M428.1,29.2c-.9,0-1.7.8-1.7,1.7s.8,1.7,1.7,1.7,1.7-.8,1.7-1.7-.7-1.7-1.7-1.7M433.5,12.5c-.9,0-1.7.8-1.7,1.7s.8,1.7,1.7,1.7,1.7-.8,1.7-1.7-.8-1.7-1.7-1.7M428.1,40.5c-.9,0-1.7.8-1.7,1.7s.8,1.7,1.7,1.7,1.7-.8,1.7-1.7-.7-1.7-1.7-1.7M428.1,34.9c-.9,0-1.7.8-1.7,1.7s.8,1.7,1.7,1.7,1.7-.8,1.7-1.7-.7-1.7-1.7-1.7M428.1,12.5c-.9,0-1.7.8-1.7,1.7s.8,1.7,1.7,1.7,1.7-.8,1.7-1.7-.7-1.7-1.7-1.7M438.8,29.9c.9,0,1.7-.8,1.7-1.7s-.8-1.7-1.7-1.7-1.7.8-1.7,1.7.8,1.7,1.7,1.7M444.2,29.9c.9,0,1.7-.8,1.7-1.7s-.8-1.7-1.7-1.7-1.7.8-1.7,1.7.8,1.7,1.7,1.7M433.3,26.5c-.9,0-1.7.8-1.7,1.7s.8,1.7,1.7,1.7,1.7-.8,1.7-1.7c.1-1-.7-1.7-1.7-1.7M428.1,18c-.9,0-1.7.8-1.7,1.7s.8,1.7,1.7,1.7,1.7-.8,1.7-1.7-.7-1.7-1.7-1.7M428.1,23.6c-.9,0-1.7.8-1.7,1.7s.8,1.7,1.7,1.7,1.7-.8,1.7-1.7-.7-1.7-1.7-1.7M271.4,26.5c0,.9.8,1.7,1.7,1.7s1.7-.8,1.7-1.7-.8-1.7-1.7-1.7-1.7.8-1.7,1.7M275.2,22.4c0,.9.8,1.7,1.7,1.7s1.7-.8,1.7-1.7-.8-1.7-1.7-1.7-1.8.8-1.7,1.7M282.7,14.2c0,.9.8,1.7,1.7,1.7s1.7-.8,1.7-1.7-.8-1.7-1.7-1.7-1.7.7-1.7,1.7M278.9,18.3c0,.9.8,1.7,1.7,1.7s1.7-.8,1.7-1.7-.8-1.7-1.7-1.7-1.7.7-1.7,1.7M398,20.5c.9,0,1.7-.8,1.7-1.7s-.8-1.7-1.7-1.7-1.7.8-1.7,1.7.8,1.7,1.7,1.7M406.7,37.5c0,.9.8,1.7,1.7,1.7s1.7-.8,1.7-1.7-.8-1.7-1.7-1.7-1.7.8-1.7,1.7M404.1,32.8c0,.9.8,1.7,1.7,1.7s1.7-.8,1.7-1.7-.8-1.7-1.7-1.7-1.7.8-1.7,1.7M401.5,28.2c0,.9.8,1.7,1.7,1.7s1.7-.8,1.7-1.7-.8-1.7-1.7-1.7-1.7.7-1.7,1.7M398.9,32.8c0,.9.8,1.7,1.7,1.7s1.7-.8,1.7-1.7-.8-1.7-1.7-1.7-1.7.8-1.7,1.7M409.3,42.2c0,.9.8,1.7,1.7,1.7s1.7-.8,1.7-1.7-.8-1.7-1.7-1.7-1.7.7-1.7,1.7M398.9,23.5c0,.9.8,1.7,1.7,1.7s1.7-.8,1.7-1.7-.8-1.7-1.7-1.7-1.7.8-1.7,1.7M393.7,32.8c0,.9.8,1.7,1.7,1.7s1.7-.8,1.7-1.7-.8-1.7-1.7-1.7-1.7.8-1.7,1.7M393.7,14.2c0,.9.8,1.7,1.7,1.7s1.7-.8,1.7-1.7-.8-1.7-1.7-1.7-1.7.7-1.7,1.7M609.3,24c0,.9.8,1.7,1.7,1.7s1.7-.8,1.7-1.7-.8-1.7-1.7-1.7-1.7.8-1.7,1.7M613.6,19.1c0,.9.8,1.7,1.7,1.7s1.7-.8,1.7-1.7-.8-1.7-1.7-1.7-1.7.7-1.7,1.7M618,14.1c0,.9.8,1.7,1.7,1.7s1.7-.8,1.7-1.7-.8-1.7-1.7-1.7-1.7.8-1.7,1.7M533.6,35.8c-.9,0-1.7.8-1.7,1.7s.7,1.7,1.7,1.7,1.7-.8,1.7-1.7c0-.9-.7-1.7-1.7-1.7M529.4,31.1c-.9,0-1.7.7-1.7,1.7s.8,1.7,1.7,1.7,1.7-.8,1.7-1.7-.7-1.7-1.7-1.7M537.9,40.5c-.9,0-1.7.7-1.7,1.7s.7,1.7,1.7,1.7,1.7-.7,1.7-1.7-.8-1.7-1.7-1.7M525.2,26.5c-.9,0-1.7.7-1.7,1.7s.7,1.7,1.7,1.7,1.7-.8,1.7-1.7-.7-1.7-1.7-1.7M521,21.8c-.9,0-1.7.7-1.7,1.7s.7,1.7,1.7,1.7,1.7-.7,1.7-1.7-.8-1.7-1.7-1.7M516.8,17.1c-.9,0-1.7.7-1.7,1.7s.7,1.7,1.7,1.7,1.7-.7,1.7-1.7-.8-1.7-1.7-1.7M512.5,12.5c-.9,0-1.7.7-1.7,1.7s.7,1.7,1.7,1.7,1.7-.7,1.7-1.7-.7-1.7-1.7-1.7M325.6,37.4c-.9,0-1.7.8-1.7,1.7s.8,1.7,1.7,1.7,1.7-.8,1.7-1.7-.8-1.7-1.7-1.7M320.7,40.2c-.9,0-1.7.8-1.7,1.7s.8,1.7,1.7,1.7,1.7-.8,1.7-1.7-.8-1.7-1.7-1.7M315,41c-.9,0-1.7.8-1.7,1.7s.8,1.7,1.7,1.7,1.7-.8,1.7-1.7-.8-1.7-1.7-1.7M309.5,39.9c-.9,0-1.7.8-1.7,1.7s.8,1.7,1.7,1.7,1.7-.8,1.7-1.7-.7-1.7-1.7-1.7M305.4,36c-.9,0-1.7.8-1.7,1.7s.8,1.7,1.7,1.7,1.7-.8,1.7-1.7-.7-1.7-1.7-1.7M304,30.4c-.9,0-1.7.8-1.7,1.7s.8,1.7,1.7,1.7,1.7-.8,1.7-1.7-.8-1.7-1.7-1.7M305.4,24.9c-.9,0-1.7.8-1.7,1.7s.8,1.7,1.7,1.7,1.7-.8,1.7-1.7-.7-1.7-1.7-1.7M309.5,21c-.9,0-1.7.8-1.7,1.7s.8,1.7,1.7,1.7,1.7-.8,1.7-1.7-.7-1.7-1.7-1.7M315,19.8c-.9,0-1.7.8-1.7,1.7s.8,1.7,1.7,1.7,1.7-.8,1.7-1.7-.8-1.7-1.7-1.7M320.7,20.6c-.9,0-1.7.8-1.7,1.7s.8,1.7,1.7,1.7,1.7-.8,1.7-1.7-.8-1.7-1.7-1.7M325.6,23.4c-.9,0-1.7.8-1.7,1.7s.8,1.7,1.7,1.7,1.7-.8,1.7-1.7-.8-1.7-1.7-1.7M374.9,16.9c-.9,0-1.7.8-1.7,1.7s.8,1.7,1.7,1.7,1.7-.8,1.7-1.7-.7-1.7-1.7-1.7M370.4,13.6c-.9,0-1.7.8-1.7,1.7s.8,1.7,1.7,1.7,1.7-.8,1.7-1.7-.8-1.7-1.7-1.7M364.9,11.9c-.9,0-1.7.8-1.7,1.7s.8,1.7,1.7,1.7,1.7-.8,1.7-1.7-.8-1.7-1.7-1.7M359,11.6c-.9,0-1.7.8-1.7,1.7s.8,1.7,1.7,1.7,1.7-.8,1.7-1.7-.7-1.7-1.7-1.7M353.3,12.7c-.9,0-1.7.8-1.7,1.7s.8,1.7,1.7,1.7,1.7-.8,1.7-1.7c.1-1-.7-1.7-1.7-1.7M348.8,15.6c-.9,0-1.7.8-1.7,1.7s.8,1.7,1.7,1.7,1.7-.8,1.7-1.7-.8-1.7-1.7-1.7M345.7,20.6c-.9,0-1.7.8-1.7,1.7s.8,1.7,1.7,1.7,1.7-.8,1.7-1.7-.8-1.7-1.7-1.7M344.5,26.3c-.9,0-1.7.8-1.7,1.7s.8,1.7,1.7,1.7,1.7-.8,1.7-1.7-.7-1.7-1.7-1.7M374.9,39.2c-.9,0-1.7-.8-1.7-1.7s.8-1.7,1.7-1.7,1.7.8,1.7,1.7-.7,1.7-1.7,1.7M370.4,42.5c-.9,0-1.7-.8-1.7-1.7s.8-1.7,1.7-1.7,1.7.8,1.7,1.7-.8,1.7-1.7,1.7M364.9,44.2c-.9,0-1.7-.8-1.7-1.7s.8-1.7,1.7-1.7,1.7.8,1.7,1.7-.8,1.7-1.7,1.7M359,44.5c-.9,0-1.7-.8-1.7-1.7s.8-1.7,1.7-1.7,1.7.8,1.7,1.7-.7,1.7-1.7,1.7M353.3,43.4c-.9,0-1.7-.8-1.7-1.7s.8-1.7,1.7-1.7,1.7.8,1.7,1.7c.1.9-.7,1.7-1.7,1.7M348.8,40.5c-.9,0-1.7-.8-1.7-1.7s.8-1.7,1.7-1.7,1.7.8,1.7,1.7-.8,1.7-1.7,1.7M345.7,35.5c-.9,0-1.7-.8-1.7-1.7s.8-1.7,1.7-1.7,1.7.8,1.7,1.7-.8,1.7-1.7,1.7M32.5,40.9c-.9,0-1.7.8-1.7,1.7s.8,1.7,1.7,1.7,1.7-.8,1.7-1.7-.7-1.7-1.7-1.7M33.6,27.8c0-.9-.8-1.7-1.7-1.7s-1.7.8-1.7,1.7.8,1.7,1.7,1.7,1.7-.8,1.7-1.7M27.2,38.9c-.9,0-1.7.8-1.7,1.7s.8,1.7,1.7,1.7,1.7-.8,1.7-1.7-.7-1.7-1.7-1.7M23.8,22.7c.9,0,1.7-.8,1.7-1.7s-.8-1.7-1.7-1.7-1.7.8-1.7,1.7.8,1.7,1.7,1.7M23.1,34.7c-.9,0-1.7.8-1.7,1.7s.8,1.7,1.7,1.7,1.7-.8,1.7-1.7-.8-1.7-1.7-1.7M43.9,39.9c-.9,0-1.7.8-1.7,1.7s.8,1.7,1.7,1.7,1.7-.8,1.7-1.7-.8-1.7-1.7-1.7M24.8,25.9c0,.9.8,1.7,1.7,1.7s1.7-.8,1.7-1.7-.8-1.7-1.7-1.7-1.7.8-1.7,1.7M48,36.1c-.9,0-1.7.8-1.7,1.7s.8,1.7,1.7,1.7,1.7-.8,1.7-1.7-.8-1.7-1.7-1.7M45.1,28.9c0-.9-.8-1.7-1.7-1.7s-1.7.8-1.7,1.7.8,1.7,1.7,1.7,1.7-.7,1.7-1.7M38.3,41.2c-.9,0-1.7.8-1.7,1.7s.8,1.7,1.7,1.7,1.7-.8,1.7-1.7-.8-1.7-1.7-1.7M39.3,28.2c0-.9-.8-1.7-1.7-1.7s-1.7.8-1.7,1.7.8,1.7,1.7,1.7,1.7-.7,1.7-1.7M31.2,15.5c.9,0,1.7-.8,1.7-1.7s-.8-1.7-1.7-1.7-1.7.8-1.7,1.7.7,1.7,1.7,1.7M48,30.4c-.9,0-1.7.8-1.7,1.7s.8,1.7,1.7,1.7,1.7-.8,1.7-1.7-.8-1.7-1.7-1.7M36.9,15.2c.9,0,1.7-.8,1.7-1.7s-.8-1.7-1.7-1.7-1.7.8-1.7,1.7.8,1.7,1.7,1.7M25.8,17.5c.9,0,1.7-.8,1.7-1.7s-.8-1.7-1.7-1.7c-1,.1-1.7.8-1.7,1.8s.7,1.6,1.7,1.6M47.4,19.3c.9,0,1.7-.8,1.7-1.7s-.8-1.7-1.7-1.7-1.7.8-1.7,1.7.7,1.7,1.7,1.7M42.6,16.2c.9,0,1.7-.8,1.7-1.7s-.8-1.7-1.7-1.7-1.7.8-1.7,1.7.7,1.7,1.7,1.7"/>
</svg>